<svg id="Слой_1" data-name="Слой 1" xmlns="http://www.w3.org/2000/svg" xmlns:xlink="http://www.w3.org/1999/xlink" viewBox="0 0 40 40"><defs><style>.cls-1{fill:none;}.cls-2{clip-path:url(#clip-path);}.cls-3{fill:url(#Безымянный_градиент);}</style><clipPath id="clip-path"><path class="cls-1" d="M9.3,30.2c-3-1.8-3.5-2.6-3.5-6.1V17a2,2,0,0,1,.3-1.1A1.8,1.8,0,0,1,7.7,15a2.92,2.92,0,0,1,.9.2l5.7,3.3a7,7,0,0,1,3.1,5.4V34a.47.47,0,0,1-.5.5c-.1,0-.2,0-.2-.1h0Zm24.8-15a.35.35,0,0,0,.1.2h0v8.7c-.1,3.7-.6,4.4-4.1,6.4l-5.8,3.4a2.28,2.28,0,0,1-1.1.3,1.89,1.89,0,0,1-1.6-.9,1.61,1.61,0,0,1-.3-.9V25.7a7.13,7.13,0,0,1,3.2-5.5l8.9-5.1h0c.3-.2.6-.2.7.1m-16.3.9L8.8,11a.57.57,0,0,1-.2-.7c0-.1.1-.1.2-.2h0l7.6-4.4C19.7,4,20.6,4,24.1,6l5.8,3.3a1.56,1.56,0,0,1,.8.8,2.12,2.12,0,0,1,0,1.9,2.34,2.34,0,0,1-.7.7l-5.8,3.4a6.21,6.21,0,0,1-3.1.8,8,8,0,0,1-3.3-.8M20,0a6.86,6.86,0,0,0-3.7,1L5.6,7.3A7.35,7.35,0,0,0,2,13.6V26.4a7.35,7.35,0,0,0,3.6,6.3L16.3,39A6.86,6.86,0,0,0,20,40h0a6.86,6.86,0,0,0,3.7-1l10.7-6.3A7.35,7.35,0,0,0,38,26.4V13.6a7.35,7.35,0,0,0-3.6-6.3L23.7,1A6.86,6.86,0,0,0,20,0Z"/></clipPath><linearGradient id="Безымянный_градиент" x1="-1021.92" y1="418.68" x2="-1021.75" y2="418.68" gradientTransform="matrix(219.54, -11.51, -10.36, -243.93, 228686.93, 90388.93)" gradientUnits="userSpaceOnUse"><stop offset="0" stop-color="#6f00f9"/><stop offset="1" stop-color="#69bac0"/></linearGradient></defs><title>yad_01</title><g class="cls-2"><polygon class="cls-3" points="2.1 41.9 39.7 39.9 37.9 -1.9 0.3 0.1 2.1 41.9"/></g></svg>