<svg id="Слой_1" data-name="Слой 1" xmlns="http://www.w3.org/2000/svg" viewBox="0 0 30 31"><defs><style>.cls-1{fill:#68cdbc;}.cls-2{fill:#353063;}</style></defs><title>phone</title><circle class="cls-1" cx="15" cy="15.5" r="14.5"/><path class="cls-2" d="M19.23,24.84a3.42,3.42,0,0,1-1.85-.39A26.85,26.85,0,0,1,14,22.68a15.07,15.07,0,0,1-3.5-3.12,23.11,23.11,0,0,1-3-4.74,11.11,11.11,0,0,1-1-2.5,5.81,5.81,0,0,1,.19-3.5A5.26,5.26,0,0,1,8.63,6.46a1.74,1.74,0,0,1,1.45-.26l.73.13a.77.77,0,0,1,.67.57c.15.49.3,1,.43,1.47.21.84.41,1.67.62,2.51a.87.87,0,0,1-.15.78,6.7,6.7,0,0,1-1.15,1.17l-.32.28a.49.49,0,0,0-.15.63c.18.41.35.83.56,1.23a11.75,11.75,0,0,0,2.6,3.43,14,14,0,0,0,2.3,1.68l.2.1a.6.6,0,0,0,.74-.09c.34-.29.67-.59,1-.89l.89-.81a.46.46,0,0,1,.55-.07,7.74,7.74,0,0,1,.8.44c1,.65,2,1.32,3,2a.64.64,0,0,1,.29.69A5.64,5.64,0,0,1,23.13,23a3.12,3.12,0,0,1-1.41,1.28A5,5,0,0,1,19.23,24.84Z"/></svg>